<svg xmlns="http://www.w3.org/2000/svg" width="33" height="32" viewBox="0 0 33 32">
    <g fill="none" fill-rule="evenodd">
        <g>
            <g>
                <g>
                    <g>
                        <path fill="#F7B500" d="M11.559 1.273L20.501 1.273 20.501 2.531 23.063 2.531 23.063 3.79 25.579 3.79 25.579 5.048 26.882 5.048 26.882 6.441 28.231 6.441 28.231 8.913 29.399 8.913 29.399 11.564 30.747 11.564 30.747 15.339 29.489 15.339 29.489 20.416 28.186 20.416 28.186 22.978 26.927 22.978 26.927 24.281 24.321 24.281 24.321 25.539 21.805 25.539 21.805 26.887 10.301 26.887 10.301 25.584 7.694 25.584 7.694 24.371 5.088 24.371 5.088 23.113 3.785 23.113 3.785 20.416 2.571 20.416 2.571 15.339 1.268 15.339 1.268 11.564 2.571 11.564 2.571 9.002 3.92 9.002 3.92 6.486 5.133 6.486 5.133 5.138 6.346 5.138 6.346 3.835 8.952 3.835 8.952 2.621 11.514 2.621z" transform="translate(-398 -361) translate(378 302) translate(20 59)"/>
                        <path fill="#1D1D1B" d="M11.574 0L11.574 1.273 20.501 1.273 20.501 2.531 23.063 2.531 23.063 1.168 20.501 1.168 20.501 0zM23.063 3.79L25.579 3.79 25.579 2.531 23.063 2.531zM29.499 8.913L29.499 6.361 28.208 6.361 28.208 5.033 26.912 5.033 26.912 3.7 25.579 3.7 25.579 5.033 26.875 5.033 26.875 6.441 28.208 6.441 28.208 8.913 29.399 8.913 29.399 11.564 30.747 11.564 30.747 8.913zM3.859 25.594L3.859 26.887 5.132 26.887 5.132 28.181 6.398 28.181 6.398 29.451 8.9 29.451 8.9 30.745 11.514 30.745 11.514 31.996 20.527 31.996 20.527 30.745 23.088 30.745 23.088 29.451 20.474 29.451 20.474 30.702 11.514 30.702 11.514 29.451 9.012 29.451 9.012 28.158 6.426 28.158 6.426 26.887 5.152 26.887 5.152 25.594zM8.919 1.273L8.919 2.47 6.391 2.47 6.391 3.818 5.048 3.818 5.048 5.167 3.79 5.167 3.79 6.39 2.571 6.39 2.571 8.9 1.233 8.9 1.233 11.561 0 11.561 0 20.476 1.268 20.476 1.268 23.073 2.565 23.073 2.565 25.594 3.859 25.594 3.859 23.028 2.616 23.028 2.616 20.412 1.268 20.412 1.268 11.561 2.581 11.561 2.581 9.051 3.92 9.051 3.92 6.515 5.138 6.515 5.138 5.167 6.396 5.167 6.396 3.818 8.948 3.818 8.948 2.621 11.574 2.621 11.574 1.273zM30.747 11.564L30.747 20.461 29.479 20.461 29.479 22.993 28.171 22.993 28.171 24.263 26.931 24.263 26.931 26.865 25.633 26.865 25.633 28.158 23.088 28.158 23.088 29.451 25.702 29.451 25.702 28.213 26.981 28.213 26.981 26.914 28.279 26.914 28.279 25.644 29.519 25.644 29.519 23.113 30.827 23.113 30.827 20.461 32.095 20.461 32.095 11.564z" transform="translate(-398 -361) translate(378 302) translate(20 59)"/>
                        <path fill="#F78F00" d="M30.777 15.339v5.122h-1.304v2.547H28.17v1.256h-1.236v2.601h-1.303v1.293h-2.543v1.302h-2.574v1.242h-9V29.46H9.012v-1.302H6.418v-1.27H5.143v-1.294H3.859v-2.478h1.289v1.255h2.546v1.223h2.607v1.234h11.484v-1.282h2.543v-1.282h2.539v-1.301h1.303v-2.547h1.303V15.34h1.304zM3.86 20.412v2.628H2.571v-2.628h1.29zm-1.289-5.063v5.063H1.268v-5.063h1.303z" transform="translate(-398 -361) translate(378 302) translate(20 59)"/>
                        <path fill="#FFF" fill-opacity=".6" d="M25.618 10.617L23.483 10.617 23.483 8.607 21.369 8.607 21.369 6.388 10.633 6.388 10.633 8.607 8.645 8.607 8.645 10.617 6.418 10.617 6.418 21.233 8.645 21.233 8.645 23.529 10.633 23.529 10.633 25.588 21.369 25.588 21.369 23.529 23.483 23.529 23.483 21.233 25.618 21.233z" transform="translate(-398 -361) translate(378 302) translate(20 59)"/>
                    </g>
                </g>
            </g>
        </g>
    </g>
</svg>
