<svg xmlns="http://www.w3.org/2000/svg" width="32" height="32" viewBox="0 0 32 32">
    <g fill="none" fill-rule="evenodd">
        <g>
            <g>
                <g>
                    <g>
                        <g>
                            <path fill="#C1C1C1" d="M11.29 1.246L20.025 1.246 20.025 2.478 22.526 2.478 22.526 3.709 24.984 3.709 24.984 4.941 26.257 4.941 26.257 6.304 27.574 6.304 27.574 8.723 28.715 8.723 28.715 11.319 30.032 11.319 30.032 15.013 28.803 15.013 28.803 19.983 27.53 19.983 27.53 22.49 26.301 22.49 26.301 23.766 23.755 23.766 23.755 24.997 21.297 24.997 21.297 26.317 10.061 26.317 10.061 25.041 7.515 25.041 7.515 23.854 4.97 23.854 4.97 22.622 3.697 22.622 3.697 19.983 2.512 19.983 2.512 15.013 1.239 15.013 1.239 11.319 2.512 11.319 2.512 8.811 3.828 8.811 3.828 6.348 5.013 6.348 5.013 5.029 6.199 5.029 6.199 3.753 8.744 3.753 8.744 2.566 11.246 2.566z" transform="translate(-787 -361) translate(668 302) translate(119 59)"/>
                            <path fill="#1D1D1B" d="M11.305 0L11.305 1.246 20.025 1.246 20.025 2.478 22.526 2.478 22.526 1.144 20.025 1.144 20.025 0zM22.526 3.709L24.984 3.709 24.984 2.478 22.526 2.478zM28.813 8.723L28.813 6.226 27.552 6.226 27.552 4.926 26.287 4.926 26.287 3.621 24.984 3.621 24.984 4.926 26.25 4.926 26.25 6.304 27.552 6.304 27.552 8.723 28.715 8.723 28.715 11.319 30.032 11.319 30.032 8.723zM3.769 25.051L3.769 26.317 5.013 26.317 5.013 27.583 6.249 27.583 6.249 28.827 8.693 28.827 8.693 30.093 11.246 30.093 11.246 31.317 20.049 31.317 20.049 30.093 22.551 30.093 22.551 28.827 19.998 28.827 19.998 30.051 11.246 30.051 11.246 28.827 8.802 28.827 8.802 27.56 6.276 27.56 6.276 26.317 5.032 26.317 5.032 25.051zM8.712 1.246L8.712 2.418 6.242 2.418 6.242 3.737 4.931 3.737 4.931 5.057 3.702 5.057 3.702 6.254 2.512 6.254 2.512 8.711 1.205 8.711 1.205 11.316 0 11.316 0 20.042 1.239 20.042 1.239 22.583 2.506 22.583 2.506 25.051 3.769 25.051 3.769 22.539 2.555 22.539 2.555 19.978 1.239 19.978 1.239 11.316 2.521 11.316 2.521 8.859 3.828 8.859 3.828 6.377 5.018 6.377 5.018 5.057 6.247 5.057 6.247 3.737 8.739 3.737 8.739 2.566 11.305 2.566 11.305 1.246zM30.032 11.319L30.032 20.027 28.793 20.027 28.793 22.505 27.516 22.505 27.516 23.748 26.304 23.748 26.304 26.295 25.036 26.295 25.036 27.56 22.551 27.56 22.551 28.826 25.105 28.826 25.105 27.615 26.353 27.615 26.353 26.343 27.621 26.343 27.621 25.1 28.832 25.1 28.832 22.622 30.11 22.622 30.11 20.027 31.349 20.027 31.349 11.319z" transform="translate(-787 -361) translate(668 302) translate(119 59)"/>
                            <path fill="#8B8B8B" d="M30.06 15.013v5.014h-1.272v2.493h-1.273v1.229h-1.207v2.546h-1.273v1.265h-2.484v1.275h-2.514v1.216h-8.79v-1.216H8.801V27.56H6.27v-1.243H5.023v-1.266H3.769v-2.426h1.259v1.229h2.487v1.197h2.546v1.207h11.217v-1.254h2.484v-1.255h2.48v-1.273h1.273v-2.493h1.273v-4.97h1.273zM3.77 19.978v2.573H2.512v-2.573H3.77zm-1.258-4.955v4.955H1.239v-4.955h1.273z" transform="translate(-787 -361) translate(668 302) translate(119 59)"/>
                            <path fill="#FFF" fill-opacity=".6" d="M25.022 10.391L22.937 10.391 22.937 8.424 20.872 8.424 20.872 6.252 10.386 6.252 10.386 8.424 8.444 8.424 8.444 10.391 6.269 10.391 6.269 20.782 8.444 20.782 8.444 23.03 10.386 23.03 10.386 25.045 20.872 25.045 20.872 23.03 22.937 23.03 22.937 20.782 25.022 20.782z" transform="translate(-787 -361) translate(668 302) translate(119 59)"/>
                        </g>
                    </g>
                </g>
            </g>
        </g>
    </g>
</svg>
