<svg xmlns="http://www.w3.org/2000/svg" width="148" height="159"><defs><path id="a" d="M.24.12h.119v.12H.24z"/><path id="b" d="M.915.459h.457v.459H.915z"/><path id="c" d="M.915.459h.457v.459H.915z"/><path id="d" d="M.915.459h.457v.459H.915z"/><path id="e" d="M.24.12h.119v.12H.24z"/><path id="f" d="M.524.263h.262v.262H.524z"/><path id="g" d="M1.047.525h.524v.526h-.524z"/><path id="h" d="M1.047.525h.524v.526h-.524z"/><path id="i" d="M1.047.525h.524v.526h-.524z"/><path id="j" d="M.524.263h.262v.262H.524z"/></defs><g fill="none" fill-rule="evenodd"><path fill="#000" d="M11.76 125.055v5.816h14.492v2.908h8.696v2.908h2.901v-5.816h-8.698v-2.908H14.658v-2.908H11.76zm37.683 8.724v2.908h2.897v-2.908h-2.898zm2.898-8.724v2.908h-5.797v5.816h2.899v-2.908h5.797v-5.816h-2.899zm-43.48-2.908v2.908h2.899v-2.908H8.861zm46.379 0v2.908h2.898v-2.908H55.24zm-49.279-2.885v2.908H8.86v-2.908H5.961zm52.177 2.885h2.899v-8.719h-2.899v8.719zm-55.075-8.696v5.81h2.898v-5.81H3.063zm17.392-.023v2.908h5.797v-2.908h-5.797zm-17.392-2.89v2.908h2.898v-2.908H3.063zm11.595-.023v2.908h5.797v-2.908h-5.797zm11.594-17.451v8.724h-2.898v11.635h8.695v-8.727h-2.898V93.064h-2.899zm26.09 5.816v2.908h2.898v2.908h2.898v8.727h2.899v-11.635h-2.899V98.88h-5.797zM.164 93.08v17.458h2.899V93.079H.164zm26.088 11.616h2.899v5.819h-2.899v-5.82zM8.862 93.064v14.54h5.796v-2.908H11.76V93.064H8.861zm23.187 8.724v2.908h2.899v-2.908h-2.899zm2.899-2.908v2.908h2.901V98.88h-2.901zm2.901-2.908v2.908h14.492v-2.908H37.849zM.164 87.248v5.816h2.899v-5.816H.164zM11.76 84.34v8.724h2.898V84.34H11.76zm-8.697-2.908v5.816h2.898v-5.816H3.063zm11.595 0v2.908h2.899v-2.908h-2.899zm-8.697-2.91v2.91H8.86v-2.91H5.961zm11.596 0v2.91h2.898v-2.91h-2.898zm-8.696-2.909v2.908h5.797v-2.908H8.861zm5.797-2.908v2.908h2.899v-2.908h-2.899z"/><path fill="red" d="M29.15 113.428v8.719h2.9v2.908H20.455v-2.908h-5.797v-2.908H11.76v-5.81H8.861v8.718h2.899v2.908h2.898v2.908H32.05v2.908h11.597v-2.908h2.898v-2.908h5.797v-2.908h2.898v-8.719H29.15zm43.484 14.535v2.908h2.898v-2.908h-2.898zm0-14.535v11.627h2.898v-11.627h-2.898zm-66.673.023v5.81H8.86v-5.81H5.961zm-2.898-8.732v5.819h2.898v2.908H8.86v-5.816H5.961v-2.911H3.063zm34.786-2.931v2.908h-2.901v8.727H55.24v-5.82h-2.899v-2.907h-8.695v-2.908h-5.797zm60.874-78.521v2.908h-2.901v5.816h-5.797v-2.908h2.898v-2.908h-5.797v2.908h-2.898v5.816h2.898v2.908h-2.898V63.98h-2.899v2.908h-2.898v2.908h-2.899v2.908H63.935v-2.908h-2.898V66.89h-2.899v-5.816H55.24v-5.816h-2.899V52.35h-2.898v-2.91h-2.899v-5.816h-2.898V34.9h-5.797v-2.91h-5.8v5.816h-2.898v2.908h5.797v2.908h2.901v2.907h2.898v5.82h2.899v2.907h5.797v2.908h2.897v5.816h2.9v20.36h-5.797v2.907h-8.696v2.908h-8.698v2.908h-2.898v11.632h2.898v-2.908h2.899V98.88h2.901v-2.908h14.492v2.908h5.797v2.908h2.899v5.816h5.8V95.972h2.898v8.724h2.899v8.727h5.796v-2.908h-2.899v-5.82h2.899v-2.907h-2.899v-5.816h2.899V84.34h2.898V69.797h2.899V66.89h2.898V43.623h2.899v-5.816h2.898v-2.908h5.8v2.908h2.898v-2.908h8.696V31.99h-8.696v-5.816h2.9v-2.908h-5.797zm-72.47 81.429v5.819h2.898v-5.82h-2.899zM3.063 93.079v11.635h2.898V93.08H3.063zm2.898-11.647v5.816H3.063v5.816H8.86V81.432H5.961zm2.9-2.91v5.818h2.899v-2.908h2.898v-2.91H8.861zm5.797-2.909v2.908h2.899v-2.908h-2.899zm14.493-46.53v2.908h2.898v-2.908h-2.898zm81.166 0v2.908h2.898v-2.908h-2.898zm-5.797-8.724v2.908h2.898v-2.908h-2.898zm2.898-2.911v2.91h2.899v-2.91h-2.899zm2.899-2.908v2.908h2.898V14.54h-2.898z"/><path fill="#FF6E6E" d="M11.76 113.423H8.861v-2.908h2.899zm0-2.908H8.861v-2.911h2.899zm0-17.451H8.861v-2.908h2.899zm0-2.908H8.861v-2.908h2.899zm0-2.908H8.861V84.34h2.899z"/><path fill="red" d="M8.86 107.622H5.961v-2.908H8.86z"/><path fill="#FF6E6E" d="M8.86 104.714H5.961v-2.908H8.86zm0-2.908H5.961v-2.908H8.86zm0-2.908H5.961V95.99H8.86zm0-2.908H5.961v-2.911H8.86zm0 11.64H5.961v-2.911H8.86z"/><path fill="red" d="M5.961 107.622H3.063v-2.908h2.898z"/><path fill="#000" d="M29.15 40.715v-2.908H8.861v2.908h20.29zm-17.39-2.908H8.861v-2.908h2.899z"/><path fill="#FF6E6E" d="M14.658 119.239H11.76v-2.908h2.898zm0-5.816H11.76v-2.908h2.898zm0-2.908H11.76v-2.911h2.898zm0-26.175H11.76v-2.908h2.898z"/><path fill="#000" d="M14.658 43.623H11.76v-2.908h2.898z"/><path fill="#B3B3B3" d="M14.658 37.807H11.76v-2.908h2.898z"/><path fill="#000" d="M14.658 34.899H11.76v-2.908h2.898zm0-2.908H11.76v-2.908h2.898z"/><path fill="#FF6E6E" d="M17.557 122.147h-2.899v-2.908h2.899zm0-2.908h-2.899v-2.908h2.899zm0-37.807h-2.899v-2.911h2.899z"/><path fill="#000" d="M17.557 46.53h-2.899v-2.907h2.899z"/><path fill="#B3B3B3" d="M17.557 43.623h-2.899v-2.908h2.899zm0-5.816h-2.899v-2.908h2.899zm0-2.908h-2.899v-2.908h2.899z"/><path fill="#000" d="M17.557 31.991h-2.899v-2.908h2.899zm0-2.908h-2.899v-2.908h2.899zm0-2.908h-2.899v-2.908h2.899zm0-2.908h-2.899v-2.908h2.899zm52.178 46.53v2.908h2.899v-2.908h-2.899zm-5.8-2.908v2.908h5.8V66.89h-5.8zm8.699 0v2.908h2.898V66.89h-2.898zm-11.597-5.816v5.816h2.898v-5.816h-2.898zm14.495 2.908v2.908h2.899v-2.908h-2.899zm8.696-26.174h-2.899v23.266h-2.898v2.908h5.797V37.807zm-26.09 17.45v2.908h2.899v-2.908h-2.899zm-2.898-2.908v2.908h2.898V52.35H55.24zm-2.899-5.819v5.82h2.899v-5.82h-2.899zm-2.898-8.723v8.723h2.897v-8.723h-2.898zm-2.899-5.816v5.816h2.899V31.99h-2.899zm-8.695-2.908v2.908h8.695v-2.908h-8.695zm-5.8-2.908v2.908h5.8v-2.908h-5.8zm-5.797-2.908v2.908h5.797v-2.908h-5.797zm-8.695-2.908v2.908h5.797v-2.908h-5.797zm-2.899-2.911v2.91h2.899v-2.91h-2.899z"/><path fill="#FF6E6E" d="M20.455 122.147h-2.898v-2.908h2.898zm0-2.908h-2.898v-2.908h2.898z"/><path fill="#B3B3B3" d="M20.455 78.521h-2.898v-2.908h2.898z"/><path fill="#D3D0D8" d="M20.455 75.613h-2.898v-2.908h2.898z"/><path fill="#000" d="M20.455 72.705h-2.898v-2.908h2.898zm0-26.175h-2.898v-2.907h2.898z"/><path fill="#B3B3B3" d="M20.455 43.623h-2.898v-2.908h2.898zm0-5.816h-2.898v-2.908h2.898z"/><path fill="#000" d="M20.455 34.899h-2.898v-2.908h2.898z"/><path fill="#B3B3B3" d="M20.455 31.991h-2.898v-2.908h2.898zm0-2.908h-2.898v-2.908h2.898z"/><path fill="#D3D0D8" d="M20.455 26.175h-2.898v-2.908h2.898z"/><path fill="#FF6E6E" d="M23.354 125.055h-2.899v-2.908h2.899zm0-2.908h-2.899v-2.908h2.899z"/><path fill="#B80000" d="M23.354 119.239h-2.899v-2.908h2.899z"/><path fill="#000" d="M23.354 78.521h-2.899v-2.908h2.899z"/><path fill="#D3D0D8" d="M23.354 75.613h-2.899v-2.908h2.899z"/><path fill="#000" d="M23.354 72.705h-2.899v-2.908h2.899zm0-23.267h-2.899V46.53h2.899z"/><path fill="#B3B3B3" d="M23.354 46.53h-2.899v-2.907h2.899z"/><path fill="#D3D0D8" d="M23.354 43.623h-2.899v-2.908h2.899zm0-5.816h-2.899v-2.908h2.899z"/><path fill="#000" d="M23.354 34.899h-2.899v-2.908h2.899z"/><path fill="#D3D0D8" d="M23.354 31.991h-2.899v-2.908h2.899zm0-2.908h-2.899v-2.908h2.899z"/><path fill="#B80000" d="M49.443 58.165v2.908h2.897v-2.908h-2.898zm-2.899-2.908v2.908h2.899v-2.908h-2.899zm-5.797-2.908v2.908h2.899V52.35h-2.899zm-2.898-5.819v2.908h2.898V46.53h-2.898zm-2.901-2.907v2.907h2.901v-2.907h-2.901zm-2.899-2.908v2.908h2.899v-2.908h-2.899zm-2.898-8.724v5.816h2.898V31.99h-2.898zm-2.899-2.908v2.908h2.899v-2.908h-2.899zm-2.898-2.908v2.908h2.898v-2.908h-2.898zm-2.899-2.908v2.908h2.899v-2.908h-2.899z"/><path fill="#FF6E6E" d="M26.252 125.055h-2.898v-2.908h2.898zm0-2.908h-2.898v-2.908h2.898z"/><path fill="#B80000" d="M26.252 119.239h-2.898v-2.908h2.898z"/><path fill="#000" d="M26.252 75.613h-2.898v-2.908h2.898z"/><path fill="#D3D0D8" d="M26.252 72.705h-2.898v-2.908h2.898z"/><path fill="#000" d="M26.252 69.797h-2.898v-2.908h2.898zm0-14.54h-2.898v-2.908h2.898zm0-2.908h-2.898v-2.911h2.898z"/><path fill="#B3B3B3" d="M26.252 49.438h-2.898V46.53h2.898zm0-2.908h-2.898v-2.907h2.898z"/><path fill="#D3D0D8" d="M26.252 43.623h-2.898v-2.908h2.898zm0-5.816h-2.898v-2.908h2.898z"/><path fill="#000" d="M26.252 34.899h-2.898v-2.908h2.898z"/><path fill="#D3D0D8" d="M26.252 31.991h-2.898v-2.908h2.898z"/><path fill="#FF6E6E" d="M69.735 72.705v-2.908h-5.8v2.908h5.8zm-8.698-5.816v2.908h2.898V66.89h-2.898zM55.24 55.257v5.816h2.898v5.816h2.899v-8.724h-2.899v-2.908H55.24zm-2.899-2.908v2.908h2.899V52.35h-2.899zm-2.898-2.91v2.91h2.897v-2.91h-2.898zM37.849 31.991v2.908h5.797v8.724h2.898v5.815h2.899V37.807h-2.899V31.99h-8.695zm-5.8-2.908v2.908h5.8v-2.908h-5.8zm-5.797-2.908v2.908h5.797v-2.908h-5.797zm-2.898-2.908v2.908h2.898v-2.908h-2.898zm5.797 101.788h-2.899v-2.908h2.899z"/><path fill="#B80000" d="M29.151 122.147h-2.899v-2.908h2.899zm0-2.908h-2.899v-2.908h2.899z"/><path fill="#000" d="M29.151 72.705h-2.899v-2.908h2.899zm0-2.908h-2.899v-2.908h2.899zm-2.899-8.724v2.908h2.899v-2.908h-2.899zm5.797-5.816v2.908h-2.898v2.908h5.797v-5.816h-2.899zm2.899-5.819v5.82h2.901v-2.909h2.898v-2.91h-5.8zm-5.797 11.635h-2.899v-2.908h2.899zm0-2.908h-2.899v-2.908h2.899z"/><path fill="#B3B3B3" d="M29.151 55.257h-2.899v-2.908h2.899z"/><path fill="#D3D0D8" d="M29.151 52.349h-2.899v-2.911h2.899z"/><path fill="#000" d="M29.151 49.438h-2.899V46.53h2.899z"/><path fill="#D3D0D8" d="M29.151 46.53h-2.899v-2.907h2.899zm0-2.907h-2.899v-2.908h2.899zm0-5.816h-2.899v-2.908h2.899zm0-2.908h-2.899v-2.908h2.899z"/><path fill="#B80000" d="M32.049 130.871h-2.898v-2.908h2.898zm0-5.816h-2.898v-2.908h2.898z"/><path fill="#000" d="M32.049 93.064h-2.898v-2.908h2.898z"/><path fill="#B3B3B3" d="M32.049 66.889h-2.898v-2.908h2.898zm0-2.908h-2.898v-2.908h2.898zm0-5.816h-2.898v-2.908h2.898zm0-2.908h-2.898v-2.908h2.898zm0-2.908h-2.898v-2.911h2.898z"/><path fill="#D3D0D8" d="M32.049 49.438h-2.898V46.53h2.898z"/><path fill="#000" d="M32.049 46.53h-2.898v-2.907h2.898z"/><path fill="#D3D0D8" d="M32.049 43.623h-2.898v-2.908h2.898z"/><path fill="#FF6E6E" d="M34.948 113.423h-2.899v-2.908h2.899zm0-2.908h-2.899v-2.911h2.899zm0-2.911h-2.899v-2.908h2.899z"/><path fill="#000" d="M34.948 90.156h-2.899v-2.908h2.899zm0-23.267h-2.899v-2.908h2.899z"/><path fill="#B3B3B3" d="M34.948 63.981h-2.899v-2.908h2.899z"/><path fill="#D3D0D8" d="M34.948 55.257h-2.899v-2.908h2.899zm0-2.908h-2.899v-2.911h2.899zm0-2.911h-2.899V46.53h2.899zm0-2.908h-2.899v-2.907h2.899z"/><path fill="#FF6E6E" d="M37.849 104.696h-2.901v-2.908h2.901z"/><path fill="#000" d="M37.849 90.156h-2.901v-2.908h2.901zm0-20.359h-2.901v-2.908h2.901z"/><path fill="#B3B3B3" d="M37.849 66.889h-2.901v-2.908h2.901zm0-2.908h-2.901v-2.908h2.901z"/><path fill="#D3D0D8" d="M37.849 61.073h-2.901v-2.908h2.901zm0-2.908h-2.901v-2.908h2.901zm0-8.727h-2.901V46.53h2.901z"/><path fill="#B3B3B3" d="M40.747 136.687h-2.898v-2.908h2.898z"/><path fill="#B80000" d="M40.747 133.779h-2.898v-2.908h2.898z"/><path fill="#FF6E6E" d="M40.747 101.788h-2.898V98.88h2.898z"/><path fill="#000" d="M40.747 90.156h-2.898v-2.908h2.898zm0-17.451h-2.898v-2.908h2.898z"/><path fill="#B3B3B3" d="M40.747 69.797h-2.898v-2.908h2.898zm0-2.908h-2.898v-2.908h2.898z"/><path fill="#D3D0D8" d="M40.747 63.981h-2.898v-2.908h2.898z"/><path fill="#B3B3B3" d="M40.747 61.073h-2.898v-2.908h2.898z"/><path fill="#D3D0D8" d="M40.747 58.165h-2.898v-2.908h2.898zm0-2.908h-2.898v-2.908h2.898z"/><path fill="#000" d="M43.646 139.595h-2.899v-2.908h2.899z"/><path fill="#D3D0D8" d="M43.646 136.687h-2.899v-2.908h2.899z"/><path fill="#B80000" d="M43.646 133.779h-2.899v-2.908h2.899z"/><path fill="#FF6E6E" d="M43.646 101.788h-2.899V98.88h2.899z"/><path fill="#000" d="M43.646 87.248h-2.899V84.34h2.899zm0-11.635h-2.899v-2.908h2.899z"/><path fill="#B3B3B3" d="M43.646 72.705h-2.899v-2.908h2.899z"/><path fill="#000" d="M43.646 69.797h-2.899v-2.908h2.899z"/><path fill="#D3D0D8" d="M43.646 66.889h-2.899v-2.908h2.899z"/><path fill="#B3B3B3" d="M43.646 63.981h-2.899v-2.908h2.899z"/><path fill="#D3D0D8" d="M43.646 61.073h-2.899v-2.908h2.899zm0-2.908h-2.899v-2.908h2.899z"/><path fill="#000" d="M46.544 139.595h-2.898v-2.908h2.898z"/><path fill="#B80000" d="M46.544 133.779h-2.898v-2.908h2.898z"/><path fill="#FF6E6E" d="M46.544 130.871h-2.898v-2.908h2.898zm0-26.175h-2.898v-2.908h2.898zm0-2.908h-2.898V98.88h2.898z"/><path fill="#000" d="M46.544 87.248h-2.898V84.34h2.898zm0-2.908h-2.898v-2.908h2.898zm0-2.908h-2.898v-2.911h2.898zm0-2.911h-2.898v-2.908h2.898z"/><path fill="#B3B3B3" d="M46.544 75.613h-2.898v-2.908h2.898zm0-2.908h-2.898v-2.908h2.898z"/><path fill="#D3D0D8" d="M46.544 69.797h-2.898v-2.908h2.898z"/><path fill="#000" d="M46.544 66.889h-2.898v-2.908h2.898z"/><path fill="#D3D0D8" d="M46.544 63.981h-2.898v-2.908h2.898zm0-2.908h-2.898v-2.908h2.898zm0-2.908h-2.898v-2.908h2.898z"/><path fill="#B3B3B3" d="M49.443 136.687h-2.899v-2.908h2.899zm-2.899 0h-2.898v-2.908h2.898z"/><path fill="#FF6E6E" d="M49.443 127.963h-2.899v-2.908h2.899zm0-23.267h-2.899v-2.908h2.899zm0-2.908h-2.899V98.88h2.899z"/><path fill="#000" d="M49.443 87.248h-2.899V84.34h2.899z"/><path fill="#B3B3B3" d="M49.443 84.34h-2.899v-2.908h2.899zm0-2.908h-2.899v-2.911h2.899zm0-2.911h-2.899v-2.908h2.899zm0-2.908h-2.899v-2.908h2.899zm0-2.908h-2.899v-2.908h2.899z"/><path fill="#D3D0D8" d="M49.443 69.797h-2.899v-2.908h2.899zm0-2.908h-2.899v-2.908h2.899z"/><path fill="#000" d="M49.443 63.981h-2.899v-2.908h2.899z"/><path fill="#D3D0D8" d="M49.443 61.073h-2.899v-2.908h2.899z"/><path fill="#000" d="M52.341 139.595h-2.898v-2.908h2.898z"/><path fill="#FF6E6E" d="M52.341 127.963h-2.898v-2.908h2.898zm0-23.267h-2.898v-2.908h2.898zm0-2.908h-2.898V98.88h2.898z"/><path fill="#000" d="M52.341 84.34h-2.898v-2.908h2.898z"/><path fill="#B3B3B3" d="M52.341 81.432h-2.898v-2.911h2.898z"/><path fill="#D3D0D8" d="M52.341 78.521h-2.898v-2.908h2.898zm0-2.908h-2.898v-2.908h2.898zm0-2.908h-2.898v-2.908h2.898zm0-2.908h-2.898v-2.908h2.898zm0-2.908h-2.898v-2.908h2.898zm0-2.908h-2.898v-2.908h2.898z"/><path fill="#B80000" d="M52.341 49.438h-2.898V46.53h2.898z"/><path fill="#000" d="M55.24 139.595h-2.899v-2.908h2.899z"/><path fill="#FF6E6E" d="M55.24 125.055h-2.899v-2.908h2.899zm0-17.451h-2.899v-2.908h2.899zm0-2.908h-2.899v-2.908h2.899z"/><path fill="#000" d="M55.24 84.34h-2.899v-2.908h2.899zm0-2.908h-2.899v-2.911h2.899zm0-2.911h-2.899v-2.908h2.899zm0-2.908h-2.899v-2.908h2.899zm0-2.908h-2.899v-2.908h2.899zm0-2.908h-2.899v-2.908h2.899zm0-2.908h-2.899v-2.908h2.899z"/><path fill="#FF6E6E" d="M58.138 122.147H55.24v-2.908h2.898zm0-2.908H55.24v-2.908h2.898zm0-5.816H55.24v-2.908h2.898zm0-2.908H55.24v-2.911h2.898zm0-2.911H55.24v-2.908h2.898z"/><path fill="#000" d="M63.935 136.687h-2.898v-2.908h2.898zm0-17.448h-2.898v-2.908h2.898z"/><path fill="#B3B3B3" d="M63.935 113.423h-2.898v-2.908h2.898z"/><path fill="#B80000" d="M63.935 110.515h-2.898v-2.911h2.898z"/><path fill="#000" d="M66.837 136.687h-2.902v-2.908h2.902z"/><path fill="#000" d="M69.737 136.687h-2.902v-2.908h2.902z"/><path fill="#D3D0D8" d="M66.837 133.779h-2.902v-2.908h2.902z"/><path fill="#000" d="M66.837 119.239h-2.902v-2.908h2.902z"/><path fill="#B3B3B3" d="M66.837 113.423h-2.902v-2.908h2.902z"/><path fill="#B80000" d="M66.837 110.515h-2.902v-2.911h2.902z"/><path fill="#B3B3B3" d="M69.735 133.779h-2.898v-2.908h2.898z"/><path fill="#000" d="M69.735 119.239h-2.898v-2.908h2.898z"/><path fill="#B80000" d="M69.735 113.423h-2.898v-2.908h2.898zm0-2.908h-2.898v-2.911h2.898z"/><path fill="#000" d="M75.532 122.147v8.724h-2.898v2.908h5.796v-11.632h-2.899zm-5.797-8.719v17.443h2.899v-17.443h-2.899zm8.696 0v8.719h2.898v-8.719h-2.898zM66.837 95.972v11.632h2.898v5.819h2.899v-8.727h-2.899v-8.724h-2.898zm14.492 14.543v2.908h5.797v-2.908h-5.797zm5.797-2.911v2.91h2.899v-2.91h-2.899zm2.899-2.908v2.908h2.898v-2.908h-2.898zm-5.797-5.816v2.908h8.695v2.908h2.899V98.88H84.228zm-2.899-2.908v2.908h2.899v-2.908h-2.899zM95.822 84.34v2.908h-2.899v2.908h-5.797v2.908h8.696v5.816h2.901V87.248h2.897v2.908h2.9v-2.908h-2.899V84.34h-5.8zm23.19 5.816h-2.898v5.816h-5.797v2.908h8.695v-8.724zm-11.594 2.908v2.908h2.899v-2.908h-2.899zm-2.898-2.908v2.908h2.898v-2.908h-2.898zm-20.292-2.908v2.908h2.898v-2.908h-2.898zm28.987-5.816v8.724h2.899v-8.724h-2.899zm-2.898-2.91v2.91h2.898v-2.91h-2.898zm0-2.909v2.908h2.898v-2.908h-2.898z"/><path fill="#B3B3B3" d="M72.634 133.779h-2.899v-2.908h2.899zm0 2.944h-2.899v-2.908h2.899z"/><path fill="#000" d="M72.634 46.53h-2.899v-2.907h2.899zm0-11.631h-2.899v-2.908h2.899z"/><path fill="#B3B3B3" d="M75.532 136.687h-2.898v-2.908h2.898z"/><path fill="red" d="M75.532 127.963h-2.898v-2.908h2.898z"/><path fill="#B80000" d="M75.532 72.705h-2.898v-2.908h2.898z"/><path fill="#D3D0D8" d="M75.532 46.53h-2.898v-2.907h2.898z"/><path fill="#000" d="M75.532 43.623h-2.898v-2.908h2.898z"/><path fill="#D3D0D8" d="M75.532 34.899h-2.898v-2.908h2.898z"/><path fill="#000" d="M75.532 31.991h-2.898v-2.908h2.898z"/><path fill="#B3B3B3" d="M78.431 136.687h-2.899v-2.908h2.899z"/><path fill="#FF6E6E" d="M75.532 113.428v8.719h2.899v-8.719h-2.899zm5.797-26.18h2.899v-8.727h-2.899v5.82h-2.898v11.631h-2.899v5.816h2.899v2.908h-2.899v5.819h2.899v2.908h2.898V87.248zm0-17.45v8.723h2.899v-8.724h-2.899z"/><path fill="#B80000" d="M78.431 69.797h-2.899v-2.908h2.899z"/><path fill="#000" d="M78.431 46.53h-2.899v-2.907h2.899z"/><path fill="#D3D0D8" d="M78.431 43.623h-2.899v-2.908h2.899z"/><path fill="#000" d="M78.431 40.715h-2.899v-2.908h2.899z"/><path fill="#B3B3B3" d="M78.431 34.899h-2.899v-2.908h2.899z"/><path fill="#D3D0D8" d="M78.431 31.991h-2.899v-2.908h2.899z"/><path fill="#000" d="M78.431 29.083h-2.899v-2.908h2.899zm2.898 110.512h-2.898v-2.908h2.898z"/><path fill="#D3D0D8" d="M81.329 136.687h-2.898v-2.908h2.898z"/><path fill="#B3B3B3" d="M81.329 133.779h-2.898v-2.908h2.898z"/><path fill="#FF6E6E" d="M14.658 116.336H11.76v-2.908h2.898zm2.899 0h-2.899v-2.908h2.899zm2.898 0h-2.898v-2.908h2.898z"/><path fill="#B80000" d="M29.151 116.336h-2.899v-2.908h2.899z"/><path fill="#FF6E6E" d="M58.138 116.336H55.24v-2.908h2.898z"/><path fill="#D3D0D8" d="M63.935 116.336h-2.898v-2.908h2.898zm2.902 0h-2.902v-2.908h2.902zm2.898 0h-2.898v-2.908h2.898z"/><path fill="#B80000" d="M81.329 66.889h-2.898v-2.908h2.898z"/><path fill="#000" d="M81.329 43.623h-2.898v-2.908h2.898z"/><path fill="#D3D0D8" d="M81.329 40.715h-2.898v-2.908h2.898z"/><path fill="#000" d="M81.329 37.807h-2.898v-2.908h2.898z"/><path fill="#B3B3B3" d="M81.329 34.899h-2.898v-2.908h2.898z"/><path fill="#D3D0D8" d="M81.329 31.991h-2.898v-2.908h2.898z"/><path fill="#000" d="M81.329 29.083h-2.898v-2.908h2.898zm2.899 113.422h-2.899v-2.91h2.899z"/><path fill="#B3B3B3" d="M84.228 133.779h-2.899v-2.908h2.899z"/><path fill="#D3D0D8" d="M84.228 110.515h-2.899v-2.911h2.899z"/><path fill="#B3B3B3" d="M84.228 107.604h-2.899v-2.908h2.899zm0-2.908h-2.899v-2.908h2.899z"/><path fill="#D3D0D8" d="M84.228 101.788h-2.899V98.88h2.899z"/><path fill="#B3B3B3" d="M84.228 95.972h-2.899v-2.908h2.899zm0-2.908h-2.899v-2.908h2.899z"/><path fill="#D3D0D8" d="M84.228 90.156h-2.899v-2.908h2.899z"/><path fill="#B3B3B3" d="M84.228 37.807h-2.899v-2.908h2.899zm0-2.908h-2.899v-2.908h2.899zm0-2.908h-2.899v-2.908h2.899z"/><path fill="#D3D0D8" d="M84.228 29.083h-2.899v-2.908h2.899z"/><path fill="#000" d="M84.228 26.175h-2.899v-2.908h2.899zm2.898 110.512h-2.898v-2.908h2.898z"/><path fill="#000" d="M84.229 136.687h-2.898v-2.908h2.898z"/><path fill="#D3D0D8" d="M87.126 133.779h-2.898v-2.908h2.898zm0-23.264h-2.898v-2.911h2.898z"/><path fill="#B3B3B3" d="M87.126 107.604h-2.898v-2.908h2.898z"/><path fill="#D3D0D8" d="M87.126 104.696h-2.898v-2.908h2.898z"/><path fill="#B3B3B3" d="M87.126 98.88h-2.898v-2.908h2.898zm0-2.908h-2.898v-2.908h2.898z"/><path fill="#D3D0D8" d="M87.126 93.064h-2.898v-2.908h2.898z"/><path fill="#B3B3B3" d="M87.126 87.248h-2.898V84.34h2.898zm0-2.908h-2.898v-2.908h2.898zm0-2.908h-2.898v-2.911h2.898zm0-2.911h-2.898v-2.908h2.898z"/><path fill="#000" d="M87.126 75.613h-2.898v-2.908h2.898z"/><path fill="#B3B3B3" d="M87.126 72.705h-2.898v-2.908h2.898zm0-2.908h-2.898v-2.908h2.898z"/><path fill="#B80000" d="M87.126 37.807h-2.898v-2.908h2.898z"/><path fill="#D3D0D8" d="M87.126 29.083h-2.898v-2.908h2.898z"/><path fill="#000" d="M87.126 26.175h-2.898v-2.908h2.898zm2.899 110.512h-2.899v-2.908h2.899z"/><path fill="#D3D0D8" d="M90.025 107.604h-2.899v-2.908h2.899zm0-2.908h-2.899v-2.908h2.899z"/><path fill="#B3B3B3" d="M90.025 98.88h-2.899v-2.908h2.899z"/><path fill="#D3D0D8" d="M90.025 95.972h-2.899v-2.908h2.899z"/><path fill="#B3B3B3" d="M90.025 90.156h-2.899v-2.908h2.899zm0-2.908h-2.899V84.34h2.899z"/><path fill="#D3D0D8" d="M90.025 84.34h-2.899v-2.908h2.899zm0-2.908h-2.899v-2.911h2.899z"/><path fill="#000" d="M90.025 78.521h-2.899v-2.908h2.899z"/><path fill="#D3D0D8" d="M90.025 75.613h-2.899v-2.908h2.899z"/><path fill="#B3B3B3" d="M90.025 72.705h-2.899v-2.908h2.899zm0-2.908h-2.899v-2.908h2.899zm0-2.908h-2.899v-2.908h2.899z"/><path fill="#000" d="M90.025 63.981h-2.899v-2.908h2.899z"/><path fill="#B3B3B3" d="M90.025 61.073h-2.899v-2.908h2.899zm0-2.908h-2.899v-2.908h2.899zm0-2.908h-2.899v-2.908h2.899z"/><path fill="#000" d="M130.61 66.89v2.907h2.898V66.89h-2.899zm-2.9-8.725v5.816h2.9v-5.816h-2.9zm-34.787-2.908v2.908h5.8v-2.908h-5.8zm31.886 0v2.908h2.902v-2.908h-2.902zM90.025 46.53v2.908h-2.899v2.911h2.899v2.908h2.898V46.53h-2.898zm8.698 5.82v2.907h5.797V52.35h-5.797zm20.29 0v2.907h5.796V52.35h-5.797zm-11.595-2.912v2.911h11.594v-2.91h-11.594zm-14.495-8.723v5.815h2.899v-5.815h-2.899zm2.899-2.908v2.908h2.901v-2.908h-2.901z"/><path fill="#D3D0D8" d="M90.025 49.438h-2.899V46.53h2.899z"/><path fill="#B3B3B3" d="M90.025 46.53h-2.899v-2.907h2.899z"/><path fill="#000" d="M90.025 26.175h-2.899v-2.908h2.899z"/><path fill="#D3D0D8" d="M92.923 104.696h-2.898v-2.908h2.898z"/><path fill="#B3B3B3" d="M92.923 98.88h-2.898v-2.908h2.898z"/><path fill="#D3D0D8" d="M92.923 95.972h-2.898v-2.908h2.898zm0-5.816h-2.898v-2.908h2.898zm0-2.908h-2.898V84.34h2.898z"/><path fill="#000" d="M92.923 84.34h-2.898v-2.908h2.898zm0-2.908h-2.898v-2.911h2.898zm0-2.911h-2.898v-2.908h2.898zm0-2.908h-2.898v-2.908h2.898z"/><path fill="#D3D0D8" d="M92.923 72.705h-2.898v-2.908h2.898zm0-2.908h-2.898v-2.908h2.898z"/><path fill="#000" d="M92.923 66.889h-2.898v-2.908h2.898z"/><path fill="#B3B3B3" d="M92.923 63.981h-2.898v-2.908h2.898z"/><path fill="#000" d="M92.923 61.073h-2.898v-2.908h2.898z"/><path fill="#D3D0D8" d="M92.923 58.165h-2.898v-2.908h2.898zm0-11.635h-2.898v-2.907h2.898zm0-2.907h-2.898v-2.908h2.898z"/><path fill="#B3B3B3" d="M92.923 40.715h-2.898v-2.908h2.898z"/><path fill="#000" d="M92.923 31.991h-2.898v-2.908h2.898z"/><path fill="#FF6E6E" d="M92.923 26.175h-2.898v-2.908h2.898z"/><path fill="#D3D0D8" d="M95.822 98.88h-2.899v-2.908h2.899zm0-2.908h-2.899v-2.908h2.899zm0-8.724h-2.899V84.34h2.899z"/><path fill="#FF6E6E" d="M95.822 84.34h-2.899v-2.908h2.899z"/><path fill="#B80000" d="M95.822 81.432h-2.899v-2.911h2.899z"/><path fill="#D3D0D8" d="M95.822 78.521h-2.899v-2.908h2.899z"/><path fill="#B3B3B3" d="M95.822 75.613h-2.899v-2.908h2.899z"/><path fill="#000" d="M95.822 72.705h-2.899v-2.908h2.899zm0-2.908h-2.899v-2.908h2.899z"/><path fill="#D3D0D8" d="M95.822 66.889h-2.899v-2.908h2.899z"/><path fill="#B3B3B3" d="M95.822 63.981h-2.899v-2.908h2.899z"/><path fill="#FF6E6E" d="M95.822 61.073h-2.899v-2.908h2.899z"/><path fill="#D3D0D8" d="M95.822 40.715h-2.899v-2.908h2.899z"/><path fill="#B3B3B3" d="M95.822 37.807h-2.899v-2.908h2.899z"/><path fill="#FFDD61" d="M95.822 31.991h-2.899v-2.908h2.899z"/><path fill="#000" d="M95.822 29.083h-2.899v-2.908h2.899z"/><path fill="#FF6E6E" d="M95.822 26.175h-2.899v-2.908h2.899z"/><path fill="red" d="M98.723 84.34h-2.901v-2.908h2.901z"/><path fill="#FF6E6E" d="M98.723 81.432h-2.901v-2.911h2.901z"/><path fill="#B80000" d="M98.723 78.521h-2.901v-2.908h2.901z"/><path fill="#D3D0D8" d="M98.723 75.613h-2.901v-2.908h2.901z"/><path fill="#6B6B6B" d="M98.723 72.705h-2.901v-2.908h2.901zm0-2.908h-2.901v-2.908h2.901zm0-2.908h-2.901v-2.908h2.901z"/><path fill="#B3B3B3" d="M98.723 63.981h-2.901v-2.908h2.901z"/><path fill="#FF6E6E" d="M98.723 61.073h-2.901v-2.908h2.901z"/><path fill="#D3D0D8" d="M98.723 37.807h-2.901v-2.908h2.901z"/><path fill="#FF6E6E" d="M98.723 26.175h-2.901v-2.908h2.901z"/><path fill="red" d="M101.621 84.34h-2.898v-2.908h2.898zm0-2.908h-2.898v-2.911h2.898z"/><path fill="#FF6E6E" d="M101.621 78.521h-2.898v-2.908h2.898z"/><path fill="#B80000" d="M101.621 75.613h-2.898v-2.908h2.898z"/><path fill="#6B6B6B" d="M101.621 72.705h-2.898v-2.908h2.898zm0-2.908h-2.898v-2.908h2.898zm0-2.908h-2.898v-2.908h2.898z"/><path fill="#B3B3B3" d="M101.621 63.981h-2.898v-2.908h2.898z"/><path fill="red" d="M101.621 61.073h-2.898v-2.908h2.898z"/><path fill="#FF6E6E" d="M101.621 58.165h-2.898v-2.908h2.898zm0-34.898h-2.898v-2.908h2.898z"/><path fill="red" d="M104.52 87.248h-2.899V84.34h2.899zm0-2.908h-2.899v-2.908h2.899zm0-2.908h-2.899v-2.911h2.899z"/><path fill="#FF6E6E" d="M104.52 78.521h-2.899v-2.908h2.899z"/><path fill="#B80000" d="M104.52 75.613h-2.899v-2.908h2.899z"/><path fill="#6B6B6B" d="M104.52 72.705h-2.899v-2.908h2.899z"/><path fill="#B3B3B3" d="M104.52 69.797h-2.899v-2.908h2.899z"/><path fill="#000" d="M104.52 66.889h-2.899v-2.908h2.899zm0-2.908h-2.899v-2.908h2.899z"/><path fill="#B3B3B3" d="M104.52 61.073h-2.899v-2.908h2.899z"/><path fill="#FF6E6E" d="M104.52 58.165h-2.899v-2.908h2.899z"/><path fill="#000" d="M101.621 34.899v2.908h5.797v-2.908h-5.797zm8.696-2.908v2.908h2.898V31.99h-2.898zm2.898-2.908v2.908h2.899v-2.908h-2.899zm-11.594-2.908v2.908h2.899v-2.908h-2.899zm2.899-2.908v2.908h2.898v-2.908h-2.898zm2.898-2.908v2.908h2.899v-2.908h-2.899zm2.899-2.911v2.91h2.898v-2.91h-2.898z"/><path fill="#FF6E6E" d="M104.52 23.267h-2.899v-2.908h2.899z"/><path fill="red" d="M107.418 90.156h-2.898v-2.908h2.898zm0-2.908h-2.898V84.34h2.898z"/><path fill="#FFDD61" d="M107.418 84.34h-2.898v-2.908h2.898z"/><path fill="#000" d="M107.418 81.432h-2.898v-2.911h2.898z"/><path fill="#FF6E6E" d="M107.418 78.521h-2.898v-2.908h2.898z"/><path fill="#B80000" d="M107.418 75.613h-2.898v-2.908h2.898z"/><path fill="#D3D0D8" d="M107.418 72.705h-2.898v-2.908h2.898zm0-2.908h-2.898v-2.908h2.898z"/><path fill="#000" d="M107.418 66.889h-2.898v-2.908h2.898zm0-2.908h-2.898v-2.908h2.898z"/><path fill="#B3B3B3" d="M107.418 61.073h-2.898v-2.908h2.898z"/><path fill="red" d="M107.418 58.165h-2.898v-2.908h2.898z"/><path fill="#FF6E6E" d="M107.418 55.257h-2.898v-2.908h2.898zm0-34.898h-2.898v-2.911h2.898z"/><path fill="red" d="M110.317 93.064h-2.899v-2.908h2.899zm0-2.908h-2.899v-2.908h2.899zm0-2.908h-2.899V84.34h2.899z"/><path fill="#000" d="M110.317 84.34h-2.899v-2.908h2.899z"/><path fill="#FF6E6E" d="M110.317 81.432h-2.899v-2.911h2.899z"/><path fill="#B80000" d="M110.317 78.521h-2.899v-2.908h2.899z"/><path fill="#000" d="M110.317 75.613h-2.899v-2.908h2.899zm0-2.908h-2.899v-2.908h2.899zm0-2.908h-2.899v-2.908h2.899zm0-5.816h-2.899v-2.908h2.899z"/><path fill="#D3D0D8" d="M110.317 61.073h-2.899v-2.908h2.899z"/><path fill="red" d="M110.317 58.165h-2.899v-2.908h2.899z"/><path fill="#FF6E6E" d="M110.317 55.257h-2.899v-2.908h2.899zm0-37.809h-2.899V14.54h2.899z"/><path fill="red" d="M113.215 95.972h-2.898v-2.908h2.898zm0-2.908h-2.898v-2.908h2.898z"/><path fill="#FF6E6E" d="M113.215 90.156h-2.898v-2.908h2.898zm0-2.908h-2.898V84.34h2.898zm0-2.908h-2.898v-2.908h2.898z"/><path fill="#D3D0D8" d="M113.215 61.073h-2.898v-2.908h2.898z"/><path fill="red" d="M113.215 58.165h-2.898v-2.908h2.898z"/><path fill="#FF6E6E" d="M113.215 55.257h-2.898v-2.908h2.898z"/><path fill="#FFAD00" d="M113.215 2.908h-2.898v5.816h2.898V2.908z"/><path fill="#FF6E6E" d="M116.114 95.972h-2.899v-2.908h2.899zm0-2.908h-2.899v-2.908h2.899z"/><path fill="#000" d="M116.114 63.981h-2.899v-2.908h2.899zm0-2.908h-2.899v-2.908h2.899z"/><path fill="red" d="M116.114 58.165h-2.899v-2.908h2.899z"/><path fill="#FF6E6E" d="M116.114 55.257h-2.899v-2.908h2.899z"/><path fill="#B3B3B3" d="M116.114 49.438h-2.899V46.53h2.899zm0-2.908h-2.899v-2.907h2.899zm0-2.907h-2.899v-2.908h2.899z"/><path fill="#000" d="M116.114 40.715h-2.899v-2.908h2.899z"/><path fill="#FF5400" d="M116.114 0h-2.899v8.724h2.899V0z"/><path fill="#000" d="M119.012 66.889h-2.898v-2.908h2.898z"/><path fill="#B80000" d="M119.012 63.981h-2.898v-2.908h2.898z"/><path fill="red" d="M119.012 61.073h-2.898v-2.908h2.898zm0-2.908h-2.898v-2.908h2.898z"/><path fill="#FF6E6E" d="M119.012 55.257h-2.898v-2.908h2.898z"/><path fill="#B3B3B3" d="M119.012 49.438h-2.898V46.53h2.898z"/><path fill="#000" d="M119.012 46.53h-2.898v-2.907h2.898zm0-2.907h-2.898v-2.908h2.898z"/><path fill="#FFE970" d="M124.81 17.448h-8.696v8.727h8.695v-8.727z"/><path fill="#000" d="M121.911 72.705h-2.899v-2.908h2.899zm0-2.908h-2.899v-2.908h2.899z"/><path fill="#B80000" d="M121.911 66.889h-2.899v-2.908h2.899z"/><path fill="red" d="M121.911 63.981h-2.899v-2.908h2.899zm0-2.908h-2.899v-2.908h2.899z"/><path fill="#FF6E6E" d="M121.911 58.165h-2.899v-2.908h2.899z"/><path fill="#000" d="M121.911 52.349h-2.899v-2.911h2.899zm0-2.911h-2.899V46.53h2.899z"/><path fill="#FFAD00" d="M133.508 20.359v-2.911h-2.899v-5.816h-5.8v2.908h-5.797v2.908h5.798v5.819h2.902v-2.908h5.797z"/><path fill="#FF5400" d="M142.203 34.899v2.908h-2.898v2.908h5.797v-2.908H148v-2.908h-5.797zm-17.394-11.632v2.908h2.902v-2.908h-2.902zm11.597-8.727v2.908h-2.898v2.91h-5.797v2.909h8.695v-2.908h2.899v-2.911h2.898V14.54h-5.797zm2.899-11.632v2.908h-5.797v2.908h-2.899v8.724h2.899v-5.816h2.898V8.724h5.797V2.908h-2.898zm-14.496 0v2.908h-2.898v5.816h-2.899v2.908h5.798V8.724h2.902V5.816h2.898V2.908h-5.8z"/><path fill="#000" d="M124.809 81.432h-2.898v-2.911h2.898zm0-2.911h-2.898v-2.908h2.898zm0-2.908h-2.898v-2.908h2.898z"/><path fill="#B80000" d="M124.809 72.705h-2.898v-2.908h2.898z"/><path fill="red" d="M124.809 69.797h-2.898v-2.908h2.898zm0-2.908h-2.898v-2.908h2.898z"/><path fill="#FFDD61" d="M124.809 63.981h-2.898v-2.908h2.898z"/><path fill="#000" d="M124.809 61.073h-2.898v-2.908h2.898z"/><path fill="#FF6E6E" d="M124.809 58.165h-2.898v-2.908h2.898z"/><path fill="#B3B3B3" d="M124.809 52.349h-2.898v-2.911h2.898zm0-2.911h-2.898V46.53h2.898z"/><path fill="#000" d="M124.809 46.53h-2.898v-2.907h2.898zm0-2.907h-2.898v-2.908h2.898zm2.902 40.717h-2.902v-2.908h2.902zm0-2.908h-2.902v-2.911h2.902z"/><path fill="#B80000" d="M127.711 75.613h-2.902v-2.908h2.902z"/><path fill="red" d="M127.711 72.705h-2.902v-2.908h2.902zm0-2.908h-2.902v-2.908h2.902zm0-2.908h-2.902v-2.908h2.902z"/><path fill="#000" d="M127.711 63.981h-2.902v-2.908h2.902zm0-2.908h-2.902v-2.908h2.902z"/><path fill="#B3B3B3" d="M127.711 55.257h-2.902v-2.908h2.902zm0-2.908h-2.902v-2.911h2.902z"/><path fill="#000" d="M127.711 49.438h-2.902V46.53h2.902zm0-2.908h-2.902v-2.907h2.902z"/><path fill="#B80000" d="M130.609 78.521h-2.898v-2.908h2.898z"/><path fill="red" d="M130.609 75.613h-2.898v-2.908h2.898zm0-2.908h-2.898v-2.908h2.898z"/><path fill="#FF6E6E" d="M130.609 69.797h-2.898v-2.908h2.898zm0-2.908h-2.898v-2.908h2.898z"/><path fill="#000" d="M130.609 58.165h-2.898v-2.908h2.898zm0-2.908h-2.898v-2.908h2.898zm0-2.908h-2.898v-2.911h2.898z"/><path fill="red" d="M133.508 78.521h-2.899v-2.908h2.899zm0-2.908h-2.899v-2.908h2.899z"/><path fill="#FF6E6E" d="M133.508 72.705h-2.899v-2.908h2.899zm2.898 5.816h-2.898v-2.908h2.898zm0-2.908h-2.898v-2.908h2.898z"/><path fill="#FFE970" d="M136.406 31.99v5.817h2.899v-2.908h2.898V31.99h-5.797z"/><path fill="#FFAD00" d="M139.305 34.899v2.908h2.898v-2.908h-2.898zm2.898-2.909v2.908h2.899V31.99h-2.899z"/><path fill="#F1A12C" d="M58.472 156.58h-.679v-.636h.679zm-.679-1.91h-.68v-.636h.68z"/><path fill="#F5EBC6" d="M71.383 148.305h-.68v-.636h.68z"/><path fill="#F1A12C" d="M55.075 145.76h2.038v7.001h.68v1.273h.68v.636h.679v.637h.68v1.273h1.359v.637h.679v.636h1.359v.637H60.51v-.637h-1.359v-.636h-.679v-1.273h-.68v.636h-.679v-1.273h-.68v-.637h-.679v-1.272h-.68v-1.274h-.68v-6.364h.68zm2.718 8.91h-.68v-.636h.68v.636z"/><path fill="#231F20" d="M61.87 157.838v.015h1.359v.637h-2.718v-.637h-1.359v-.015z"/><path fill="#FEFEFE" d="M58.472 144.487h-.679v-.637h.679z"/><path fill="#FBCA25" d="M71.383 146.396v-1.273h-.68v-.637h-.679v-.636h-.68v-.636h-.679v-.637h-5.437v.637h-.679v.636h-.68v.636h-.679v.637h-.68v1.273h-.679v5.092h.68v1.273h.68v.637h.679v.636h.68v.637h.679v.636h5.437v-.636h.678v-.637h.68v-.636h.68v-.637h.679v-1.273h.68v-5.092h-.68zm-12.91-.637v-1.909h.679v-.636h.68v-.637h.679v-.637h.68v-.636h.679v-.637h1.359v-.636h5.437v.636h1.357v.637h.68v.636h.679v.637h.68v.637h.68v1.272h.679v1.273h.68v6.366h-.68v1.273h-.679v1.273h-.68v.636h-.68v.637h-.679v.636h-.679v.637h-1.358v.636h-5.437v-.636H61.87v-.637h-.679v-.636h-.68v-.637h-.679v-.636h-.68v-.637h-.679v-1.273h-.68v-7.002h.68z"/><path fill="#FBCA25" d="M70.024 145.759h.679v5.093h-.679V152.125h-.68v.636h-.679v.637h-1.359v.636h-3.398v-.636h-1.359v-.637h-.679v-.636h-.68V150.852h-.679V147.032h.679V145.123h.68v-.637h.679v-.636h1.359v-.636h4.077v.636h1.359v.636h.68v.637z"/><path fill="#F1A12C" d="M55.754 143.85V142.577h.68v.636h1.359V145.123h-.68v-.637h-1.359V145.759h-.679V143.85zm7.475-4.456v.637H61.87v.636h-.68v.637h-.679v.636h-.68v.637H56.434v-.637h.679v-.636h1.359v-.637h.68v-.636h1.359v-.637z"/><path fill="#F1A12C" d="M55.754 143.85V142.577h.68v.636h1.359V145.123h-.68v-.637h-1.359V145.759h-.679V143.85z"/><path fill="#231F20" d="M57.793 143.242h-.68.68zm-2.039.608V142.577h.68V143.85h-.68V145.759h-.679V143.85zm3.398-2.546h-.68v-.637h.68zm-.68.636h-1.359v-.636h1.359zm1.359-1.273h-.679v-.636h1.359v.636zm-2.718 1.91h-.68v-.637h.68zM63.229 139.394v.637h-2.718v-.637zM61.19 156.609h-.68.68zM63.229 157.882h-.68.68zm-4.757-3.211h-.679v-.637h.679zm-1.359-8.883h-.68.68zm-2.274-.028v6.365h-.915v-6.365h.915zm.915.028h-.915.915zm2.039 9.519V156.58h-.68V155.307zm-.68 0h-.68v-.637h.68z"/><path fill="#231F20" d="M55.754 152.125V153.398h.68V154.671h-.68V153.398h-.679V152.125zm5.436 6.365h-.679v-.637h.679zm-2.718-1.91v-.636h.68V157.217h-.68zm1.359 1.273h-.679v-.636h.679zm2.718-.636h.68v.636h5.436v.637h-5.436v-.637H61.87v-.636zm-.679 0h-.68v-.637h.68zm-1.359-1.273h.679v.636h-1.359V155.307h.68zm-.68-.637h-.679v-.637h.679zm-.679-.637h-.68v-.636h.68zm-.68-1.272v.636h-.679V152.761h.679zm-.679-7.002V152.761h-.68V146.396zm.679-1.273v.636h-.679V144.486h.679zm.68-1.273h-.68v-.637h.68zm3.397 10.184h-.679v-.636h.679zm-1.359-7.638v.636h-.679V150.852h.679V152.125h.68V153.398h-.68v-.637h-.679V151.488h-.68V146.396h.68V145.123h.679v.636zm.68-1.273h-.68v-.636h.68zm.679-.637h-.679v-.636h.679zm-2.718-1.273h-.679v-.636h.679zm.68-.636h-.68v-.637h.68zm.679-.637h-.679v-.636h.679zm.68-.636h-.68v-.637h.68zm1.359-.637H61.87v-.636h1.359zm6.116 16.55h.679v.636h-1.359v-.636zm1.358 0h-.679v-.637h.679zm.68-1.273v-.637h.679V156.58h-1.359v-.636zm1.359-.637h-.68v-.637h.68zm-4.757 0h-4.756v-.636h-.68v-.637h1.359v.637h4.077v-.637h1.36v.637h-.68v.636zm2.039-1.273h-.679v-.636h.679zm2.718-.636h.68V154.671h-.68v-.637zm.68-1.273h.679V153.398h-.679v-.637zm1.359-5.729V151.488h-.68V146.396zm-4.757 5.729h.679V150.852h.68V147.032h-.68V145.759h-.679V144.486h.679v.637h.68V146.396h.68V151.488h-.68V152.761h-.68v.637h-.679v-.637zm3.398-7.002v-.637h.679V145.759h-.679zm-3.398-.637h-.679v-.636h.679zm2.718-.636v-.637h.68V144.486h-.68zm-4.757 0v-.637h-4.077v.637h-1.359v-.637h.68v-.636h5.436v.636h.68v.637h-.68zm4.757-.637h-.679v-.636h.679zm-.679-.636h-.68v-.637h.68zm-.68-.637h-.68v-.636h.68zm-.68-.636h-.679v-.637h.679zm-2.038-.637v-.636h1.359v.636h-.679zm0-1.273v.637h-5.436v-.637z"/><path fill="#FEFEFE" d="M56.434 144.486h.679v.637h.68V146.396h-.68v-.637h-1.359V144.486zm.679-1.909h2.039v.636h-.68v.637h-.679v-.637h-1.36v-.636zm8.154 11.457h2.039v-.636h1.359v-.637h.679v-.636h.68V153.398h-.68v.636h-1.359v.637h-4.077v-.637h.68zm-1.359-.636v.636h-1.359v-.636h.68zm-1.359 0h-.679v-.637h.679zm7.475-2.546h.679V152.125h-.679v-.637zm.679-1.273v-1.274h.68v2.547h-.68v-.637zm.68-1.91h-.68v-.637h.68z"/><g><path fill="#F1A12C" d="M96.957 150.603h-.831v-.765h.831zm0-2.101h-.831v-.765h.831z"/><path fill="#F5EBC6" d="M113.715 140.095h-.831v-.765h.831z"/><path fill="#F1A12C" d="M93.158 137.611h2.417v8.092h.806v1.472h.805v.735h.806v.736h.806v1.471h1.611v.735h.805v.736h1.612v.736h-3.223v-.736h-1.611v-.736h-.806v-1.471h-.805v.736h-.806v-1.471h-.806v-.736h-.806v-1.471h-.805v-1.471h-.806v-7.356h.806zm3.222 10.298h-.805v-.736h.805v.736z"/><path fill="#231F20" d="M101.429 151.931v.018h1.397v.766h-2.793v-.766h-1.397v-.018z"/><path fill="#FEFEFE" d="M96.957 135.892h-.831v-.765h.831z"/><path fill="#FBCA25" d="M113.998 136.71v-1.501h-.873v-.75h-.872v-.75h-.873v-.751h-.873v-.751h-6.983v.75h-.872v.751h-.874v.75h-.872v.751h-.873v1.501h-.873v6.005h.873v1.502h.873v.75h.872v.75h.874v.751h.872v.75h6.983v-.75h.873v-.75h.873v-.751h.871v-.75h.873v-1.501h.873v-6.006h-.873zm-16.584-.75v-2.251h.873v-.751h.873v-.751h.873v-.75h.873v-.751h.872v-.75h1.746v-.751h6.983v.75h1.747v.75h.87v.751h.873v.75h.873v.752h.874v1.5h.873v1.502h.872v7.505h-.872v1.502h-.873v1.501h-.873v.75h-.873v.751h-.873v.751h-.872v.75h-1.746v.75h-6.983v-.75h-1.746v-.75h-.872v-.75h-.873v-.751h-.873v-.751h-.873v-.75h-.873v-1.501h-.872v-8.257h.872z"/><path fill="#FBCA25" d="M112.462 136.375h.838v5.934h-.838v1.483h-.838v.742h-.838v.742h-1.676v.742h-4.189v-.742h-1.676v-.742h-.838v-.742h-.838v-1.483h-.838V137.858h.838v-2.225h.838v-.742h.838v-.741h1.676v-.742h5.027v.742h1.676v.741h.838v.742z"/><path fill="#F1A12C" d="M93.399 135.089v-1.681h1.048v.841H96.542v2.521h-1.048v-.84H93.399v1.681h-1.047V135.089zm9.427-5.884v.84h-1.676v.841h-.837v.841h-.839v.84h-.837v.841H94.447v-.841h.838v-.84h1.676v-.841h.838v-.841H99.474v-.84z"/><path fill="#F1A12C" d="M93.399 135.089v-1.681h1.048v.841H96.542v2.521h-1.048v-.84H93.399v1.681h-1.047V135.089z"/><path fill="#231F20" d="M96.957 133.408h-.831.831zm-3.558 1.681v-1.681h1.048v1.681h-1.048V137.611h-1.047V135.089zm5.653-3.4h-.831v-.765h.831z"/><path fill="#231F20" d="M98.636 131.689h-2.094v-.765h2.094zm1.048 0h-1.048v-.765H100.731v.765zm-4.822 2.101h-.831v-.765h.831zM102.826 128.822v.765H98.636v-.765zM101.147 150.221h-.832.832zM103.241 152.323h-.83.83zm-6.284-3.821h-.831v-.765h.831zm-2.095-10.891h-.83.83zM93.4 135.51v8.406h-1.048v-8.406H93.4zm1.047.044H93.4h1.047z"/><path fill="#231F20" d="M96.957 148.119v2.102h-.831v-2.102zm-2.095.383h-.831v-.765h.831z"/><path fill="#231F20" d="M93.399 146.018V147.069h1.048v1.05h-1.048v-1.05h-1.047V146.018zm7.748 6.687h-.832v-.765h.832zm-2.926-3.535v-1.051h.831v2.102h-.831z"/><path fill="#231F20" d="M99.052 150.603h-.831v-.765h.831zm2.517-.382h.838v1.05h6.703v1.052h-6.703v-1.052h-1.676v-1.05z"/><path fill="#231F20" d="M101.147 150.603h-.831v-.765h.831z"/><path fill="#231F20" d="M99.683 149.17h1.048v1.051H98.636v-2.102h1.047z"/><path fill="#231F20" d="M99.052 148.502h-.831v-.765h.831z"/><path fill="#231F20" d="M99.052 148.502h-.831v-.765h.831zm-2.095-1.434v1.051h-.831v-2.101h.831zm0-9.457v8.407h-.831v-8.407zm0-1.051v1.051h-.831v-2.101h.831zm2.095-2.77h-.831v-.765h.831zm4.19 12.61h-.832v-.765h.832zm-3.209-9.274v.809h-.698V142.785h.698v1.616h.698v1.617h-.698v-.808h-.698v-1.617h-.699v-6.467h.699v-1.616h.698v.808zm1.114-1.234h-.831v-.765h.831zm2.095 0h-.832v-.765h.832z"/><path fill="#231F20" d="M99.052 133.791h-.831v-.766h.831z"/><path fill="#231F20" d="M99.052 133.79h-.831v-.765h.831zm2.095-2.101h-.832v-.765h.832z"/><path fill="#231F20" d="M101.147 131.689h-.831v-.765h.831z"/><path fill="#231F20" d="M102.826 131.689H100.731v-.765H102.826zm7.332 18.149h1.047v.765H109.11v-.765z"/><path fill="#231F20" d="M111.62 150.603h-.831v-.765h.831z"/><path fill="#231F20" d="M112.252 149.17v-1.051h1.048v2.102H111.205v-1.051zm3.558-.668h-.831v-.765h.831zm-6.281-.383H103.664v-1.051h-.838v-1.05H104.501v1.05h5.028v-1.05h1.676v1.05h-.838v1.051z"/><path fill="#231F20" d="M111.621 146.4h-.832v-.765h.832zm3.358-.382h.831v2.101h-.831v-1.05zm0-2.102h.831v2.102h-.831v-1.051zm2.926-6.305V143.916h-.832V137.611z"/><path fill="#231F20" d="M111.205 144.517h.698v-1.501h.698v-4.504h-.698v-1.501h-.698v-1.501h.698v.75h.698v1.501h.699v6.005h-.699v1.501h-.698v.751h-.698v-.751zm3.774-7.957v-1.05h.831v2.101h-.831z"/><path fill="#231F20" d="M111.621 135.892h-.832v-.765h.832zm3.358-1.433v-1.051h.831v2.102h-.831z"/><path fill="#231F20" d="M109.529 135.51v-1.051h-5.028v1.051H102.826v-1.051h.838v-1.051h6.703v1.051h.838v1.051h-.838zm6.281-1.719h-.831v-.766h.831zm-2.095-.001h-.831v-.765h.831zm0-2.101h-.831v-.765h.831zm-2.095 0h-.831v-.765h.831z"/><path fill="#231F20" d="M109.11 131.689v-.765H111.205v.765h-1.047zm0-2.867v.765H102.826v-.765z"/><path fill="#FEFEFE" d="M95.145 135.51h.698v.7h.699V137.611h-.699v-.7h-1.396V135.51zm.349-2.102H98.636v1.051h-1.047v1.051h-1.047v-1.051H94.447v-1.051zm9.194 14.186h2.793v-.525h1.862v-.526h.931v-.525h.931V147.069h-.931v.525h-1.863v.525h-5.585v-.525h.931zm.233-1.959v.765H102.826v-.765h1.047z"/><path fill="#FEFEFE" d="M103.242 146.4h-.832v-.765h.832zm7.547-4.586h.831v2.102h-.831v-1.051zm2.095-1.05V139.713h.831v2.101h-.831v-.525z"/><path fill="#FEFEFE" d="M113.715 140.095h-.831v-.765h.831z"/></g></g></svg>