<svg xmlns="http://www.w3.org/2000/svg" width="90" height="90" viewBox="0 0 90 90">
    <g fill="none" fill-rule="evenodd">
        <g>
            <g>
                <g>
                    <g>
                        <path fill="#000" d="M52.549 79.615v-3.461h10.355v3.461H52.549zm13.807-6.923v3.462h-3.452v-3.462h3.452zm3.451-31.154v31.154h-3.451V41.538h3.451z" transform="translate(-468 -132) translate(468.2 132) matrix(-1 0 0 1 70 0)"/>
                        <path fill="#FF9836" d="M69.807 34.615v6.923h-3.451v-3.461h-3.452v-3.462h6.903z" transform="translate(-468 -132) translate(468.2 132) matrix(-1 0 0 1 70 0)"/>
                        <path fill="#AA2D21" d="M52.549 76.154v-3.462h10.355v3.462H52.549zm13.807-10.385v6.923h-3.452V65.77h3.452z" transform="translate(-468 -132) translate(468.2 132) matrix(-1 0 0 1 70 0)"/>
                        <path fill="#4F1513" d="M56 65.77v-3.462h10.356v3.461H56z" transform="translate(-468 -132) translate(468.2 132) matrix(-1 0 0 1 70 0)"/>
                        <path fill="#751F17" d="M66.356 38.077v24.23h-3.452V45h-3.452v3.462h-3.451V45h3.451v-3.462h3.452v-3.461h3.452zM56 48.462v3.461h-3.452v-3.461H56z" transform="translate(-468 -132) translate(468.2 132) matrix(-1 0 0 1 70 0)"/>
                        <path fill="#000" d="M11.129 34.615h3.451V13.846h3.452v27.692H11.13v-6.923zM66.356 20.77v13.846h-3.452V20.77h3.452zm-3.452-10.384v10.384h-3.452V10.385h3.452zm-41.42-3.462v6.923h-3.452V6.923h3.452zm37.968 0v3.462h-3.451V6.923h3.451zm-3.451-3.461v3.461h-3.452V3.462H56zm-31.065 0v3.461h-3.452V3.462h3.452zM52.549 0v3.462H24.936V0h27.613z" transform="translate(-468 -132) translate(468.2 132) matrix(-1 0 0 1 70 0)"/>
                        <path fill="#681C11" d="M52.549 51.923H56v-3.461h3.451V45h3.452v17.308H56v3.461h6.903v6.923H52.549V51.923z" transform="translate(-468 -132) translate(468.2 132) matrix(-1 0 0 1 70 0)"/>
                        <path fill="#4D0C0A" d="M38.742 69.23v-3.46h10.355V48.461h3.452v31.153h-3.452V69.231H38.742zM56.001 45v3.462h-3.452V45H56zm3.451-3.462V45h-3.451v-3.462h3.451zm3.452-3.461v3.461h-3.452v-3.461h3.452z" transform="translate(-468 -132) translate(468.2 132) matrix(-1 0 0 1 70 0)"/>
                        <path fill="#000" d="M42.194 55.385v3.461H28.387v-3.461h13.807zm3.452-3.462v3.462h-3.452v-3.462h3.452zm-17.259 0v3.462h-3.451v-3.462h3.451zm20.71-3.461v3.461h-3.451v-3.461h3.451zm-24.161 0v3.461h-3.452v-3.461h3.452zM52.549 45v3.462h-3.452V45h3.452zm-34.517-3.462h3.452v6.924h-3.452v-6.924zm37.969 0V45h-3.452v-3.462H56zm3.451-3.461v3.461h-3.451v-3.461h3.451zm3.452-3.462v3.462h-3.452v-3.462h3.452z" transform="translate(-468 -132) translate(468.2 132) matrix(-1 0 0 1 70 0)"/>
                        <path fill="#5C261F" d="M18.032 31.154h27.614v-3.462h3.451v-3.461h6.904V13.846h-6.904v-3.461h-3.451V6.923h-20.71V3.462h27.613v3.461H56v3.462h3.451v10.384h3.452v13.846h-3.452v3.462h-3.451v3.461h-3.452V45h-3.452v3.462h-3.451v3.461h-3.452v3.462H28.387v-3.462h-3.451v-3.461h-3.452v-6.924h-3.452V31.154z" transform="translate(-468 -132) translate(468.2 132) matrix(-1 0 0 1 70 0)"/>
                        <path fill="#FFCCA8" d="M42.194 17.308h3.452v-3.462h3.451v10.385h-3.451v3.461h-3.452v3.462h-3.452v-3.462h-3.451v3.462h-6.904v-3.462h-3.451v3.462h-3.452v-3.462h-3.452V17.308h3.452v6.923h3.452v-6.923h3.451v-3.462h-6.903v-3.461h24.162v3.461H35.29v3.462h3.451v6.923h3.452v-6.923zM35.29 24.23h-6.904v3.461h6.904v-3.461zM56 17.308v6.923h-3.452v-6.923H56z" transform="translate(-468 -132) translate(468.2 132) matrix(-1 0 0 1 70 0)"/>
                        <path fill="#4C1C19" d="M45.646 27.692v3.462h-3.452v-3.462h3.452zm-17.259 0v3.462h-3.451v-3.462h3.451zm-6.903 0v3.462h-3.452v-3.462h3.452zm27.613-3.461v3.461h-3.451v-3.461h3.451zm6.904-10.385v3.462h-3.452v6.923h-3.452V13.846h6.904zm-6.904-3.461v3.461h-3.451v-3.461h3.451zm-3.451-3.462v3.462H21.484V6.923h24.162z" transform="translate(-468 -132) translate(468.2 132) matrix(-1 0 0 1 70 0)"/>
                        <path fill="#000" d="M42.194 90v-3.462h3.452v-3.461h6.903V90H42.194z" transform="translate(-468 -132) translate(468.2 132) matrix(-1 0 0 1 70 0)"/>
                        <path fill="#2F5617" d="M45.646 83.077v-3.462h6.903v3.462h-6.903z" transform="translate(-468 -132) translate(468.2 132) matrix(-1 0 0 1 70 0)"/>
                        <path fill="#379B37" d="M24.936 76.154v-3.462h24.161v6.923h-3.451v-3.461h-20.71z" transform="translate(-468 -132) translate(468.2 132) matrix(-1 0 0 1 70 0)"/>
                        <path fill="#2F5617" d="M24.936 72.692v-3.461h24.161v3.461H24.936z" transform="translate(-468 -132) translate(468.2 132) matrix(-1 0 0 1 70 0)"/>
                        <path fill="#AA2D21" d="M49.097 62.308v3.461H38.742v-3.461h10.355zm-24.161 3.461v-3.461h6.903v3.461h-6.903z" transform="translate(-468 -132) translate(468.2 132) matrix(-1 0 0 1 70 0)"/>
                        <path fill="#379B37" d="M42.194 62.308v-3.462h3.452v-3.461h3.451v6.923h-6.903z" transform="translate(-468 -132) translate(468.2 132) matrix(-1 0 0 1 70 0)"/>
                        <path fill="#2F5617" d="M42.194 58.846v3.462H28.387v-3.462h13.807zm3.452-3.461v3.461h-3.452v-3.461h3.452zm-17.259 0v3.461h-3.451v-3.461h3.451zm20.71-3.462v3.462h-3.451v-3.462h3.451zM24.936 79.615v-3.461h20.71v3.461h-20.71z" transform="translate(-468 -132) translate(468.2 132) matrix(-1 0 0 1 70 0)"/>
                        <path fill="#4C1C19" d="M45.646 13.846v3.462H35.29v-3.462h10.355zm-27.614 3.462v-3.462h10.355v3.462H18.032z" transform="translate(-468 -132) translate(468.2 132) matrix(-1 0 0 1 70 0)"/>
                        <path fill="#2F1312" d="M38.742 17.308h3.452v6.923h-3.452v-6.923z" transform="translate(-468 -132) translate(468.2 132) matrix(-1 0 0 1 70 0)"/>
                        <path fill="#FF9836" d="M31.839 62.308h6.903v6.923H31.84v-6.923z" transform="translate(-468 -132) translate(468.2 132) matrix(-1 0 0 1 70 0)"/>
                        <path fill="#3E1712" d="M35.291 31.154L38.742 31.154 38.742 27.692 35.291 27.692zM28.387 27.692v-3.461h6.904v3.461h-6.904z" transform="translate(-468 -132) translate(468.2 132) matrix(-1 0 0 1 70 0)"/>
                        <path fill="#4D0C0A" d="M24.936 51.923V65.77h6.903v3.462h-6.903v10.384h-6.904v-3.461h3.452v-24.23h3.452zm-6.904 10.385v3.461H14.58v-3.461h3.452zm3.452-13.846v3.461h-3.452v-3.461h3.452zm-3.452-6.924V45H14.58v-3.462h3.452z" transform="translate(-468 -132) translate(468.2 132) matrix(-1 0 0 1 70 0)"/>
                        <path fill="#379B37" d="M24.936 62.308L28.387 62.308 28.387 58.846 24.936 58.846z" transform="translate(-468 -132) translate(468.2 132) matrix(-1 0 0 1 70 0)"/>
                        <path fill="#000" d="M14.58 90v-3.462h3.452v-3.461h6.904V90H14.58z" transform="translate(-468 -132) translate(468.2 132) matrix(-1 0 0 1 70 0)"/>
                        <path fill="#2F5617" d="M18.032 83.077v-3.462h6.904v3.462h-6.904z" transform="translate(-468 -132) translate(468.2 132) matrix(-1 0 0 1 70 0)"/>
                        <path fill="#2F1312" d="M21.484 17.308h3.452v6.923h-3.452v-6.923z" transform="translate(-468 -132) translate(468.2 132) matrix(-1 0 0 1 70 0)"/>
                        <path fill="#751F17" d="M14.58 45h3.452v6.923h3.452v24.23H14.58V65.77h3.452v-3.461H14.58V45z" transform="translate(-468 -132) translate(468.2 132) matrix(-1 0 0 1 70 0)"/>
                        <path fill="#000" d="M18.032 76.154v3.461H14.58v-3.461h3.452zM14.58 45v31.154H11.13v-20.77H7.677v-3.46h3.452V45h3.451z" transform="translate(-468 -132) translate(468.2 132) matrix(-1 0 0 1 70 0)"/>
                        <path fill="#751F17" d="M11.129 45L14.58 45 14.58 41.538 11.129 41.538z" transform="translate(-468 -132) translate(468.2 132) matrix(-1 0 0 1 70 0)"/>
                        <path fill="#FF9836" d="M11.129 34.615L14.58 34.615 14.58 31.154 11.129 31.154z" transform="translate(-468 -132) translate(468.2 132) matrix(-1 0 0 1 70 0)"/>
                        <path fill="#2F5617" d="M7.677 45h3.452v6.923H7.677V45z" transform="translate(-468 -132) translate(468.2 132) matrix(-1 0 0 1 70 0)"/>
                        <path fill="#ECB590" d="M.774 45h6.903v10.385H.774V45z" transform="translate(-468 -132) translate(468.2 132) matrix(-1 0 0 1 70 0)"/>
                    </g>
                </g>
                <g>
                    <path fill="#050505" d="M0 0v11.828h2.497v2.928h2.927v-2.928H2.928V8.782H28.93v3.046h2.927V0H0zm2.928 5.855H28.93V2.927H2.928v2.928z" transform="translate(-468 -132) translate(468.2 132) translate(57.8 24)"/>
                    <path fill="#050505" d="M26.003 14.756L28.931 14.756 28.931 11.828 26.003 11.828zM23.076 17.683L26.003 17.683 26.003 14.756 23.076 14.756zM20.149 20.611L23.076 20.611 23.076 17.683 20.149 17.683zM25.831 38.294L28.759 38.294 28.759 35.367 25.831 35.367zM17.221 29.557L20.149 29.557 20.149 32.439 22.904 32.439 22.904 35.367 25.832 35.367 25.832 32.439 23.076 32.439 23.076 29.512 20.149 29.512 20.149 20.611 17.221 20.611zM5.424 17.683L8.352 17.683 8.352 14.756 5.424 14.756zM8.352 20.611L11.28 20.611 11.28 17.683 8.352 17.683z" transform="translate(-468 -132) translate(468.2 132) translate(57.8 24)"/>
                    <path fill="#050505" d="M2.67 35.367v2.927H0V49.746h31.858V38.294h-2.927v2.637H2.927v-2.637h2.67v-2.927H2.669zm.257 11.451H28.93v-2.96H2.927v2.96zM8.352 29.512L8.352 32.439 5.597 32.439 5.597 35.367 8.524 35.367 8.524 32.439 11.28 32.439 11.28 29.557 14.207 29.557 14.207 20.611 11.28 20.611 11.28 29.512z" transform="translate(-468 -132) translate(468.2 132) translate(57.8 24)"/>
                    <path fill="#FF5342" d="M2.927 5.855L28.931 5.855 28.931 2.928 2.927 2.928zM2.927 46.802L28.931 46.802 28.931 43.875 2.927 43.875z" transform="translate(-468 -132) translate(468.2 132) translate(57.8 24)"/>
                    <path fill="#FFE77F" d="M2.927 8.782L28.931 8.782 28.931 11.828 26.004 11.828 26.004 14.756 23.076 14.756 23.076 17.683 20.148 17.683 20.148 20.611 17.221 20.611 17.221 29.557 20.148 29.557 20.148 32.439 22.904 32.439 22.904 35.367 25.832 35.367 25.832 38.294 28.931 38.294 28.931 40.932 2.927 40.932 2.927 38.294 5.597 38.294 5.597 35.367 8.524 35.367 8.524 32.439 11.28 32.439 11.28 29.557 14.207 29.557 14.207 20.611 11.28 20.611 11.28 17.683 8.352 17.683 8.352 14.756 5.424 14.756 5.424 11.828 2.927 11.828z" transform="translate(-468 -132) translate(468.2 132) translate(57.8 24)"/>
                    <path fill="#FFF" d="M8.352 11.882L11.28 11.882 11.28 8.954 8.352 8.954z" transform="translate(-468 -132) translate(468.2 132) translate(57.8 24)"/>
                    <path fill="#FFF" d="M11.279 14.756L14.207 14.756 14.207 11.828 11.279 11.828zM14.207 17.683L17.134 17.683 17.134 14.756 14.207 14.756zM11.279 35.367L14.207 35.367 14.207 32.439 11.279 32.439zM8.352 38.294L11.28 38.294 11.28 35.367 8.352 35.367z" transform="translate(-468 -132) translate(468.2 132) translate(57.8 24)"/>
                    <path fill="#FFF" d="M5.597 38.294L8.524 38.294 8.524 35.367 5.597 35.367z" transform="translate(-468 -132) translate(468.2 132) translate(57.8 24)"/>
                    <path fill="#FF5342" d="M17.134 17.683L20.062 17.683 20.062 14.756 17.134 14.756zM11.279 17.683L14.207 17.683 14.207 14.756 11.279 14.756zM11.28 38.294L5.597 38.294 5.597 40.931 26.004 40.931 26.004 38.294 20.148 38.294 20.148 35.367 17.221 35.367 17.221 32.439 14.207 32.439 14.207 35.367 11.28 35.367z" transform="translate(-468 -132) translate(468.2 132) translate(57.8 24)"/>
                </g>
            </g>
        </g>
    </g>
</svg>
