<svg xmlns="http://www.w3.org/2000/svg" width="52" height="52" viewBox="0 0 52 52">
    <g fill="none" fill-rule="evenodd">
        <g>
            <g>
                <path fill="#F7B500" d="M38.982 5.216L10.386 5.216 10.386 7.847 12.902 7.847 12.902 13.04 15.465 13.04 15.465 18.21 18.027 18.21 18.027 23.357 20.858 23.357 20.858 28.527 23.359 28.527 23.359 36.45 28.525 36.45 28.525 33.823 26.324 33.823 26.324 28.642 28.525 28.642 28.525 23.357 31.027 23.357 31.027 18.21 33.857 18.21 33.857 13.04 36.42 13.04 36.42 7.847 38.982 7.847zM5.216 7.778L7.732 7.778 7.732 13.04 5.17 13.04 5.17 15.693 7.778 15.693 7.778 18.21 10.34 18.21 10.34 20.833 5.216 20.833 5.216 18.118 2.562 18.118 2.562 10.432 5.216 10.432zM41.544 13.04L46.714 13.04 46.714 10.401 41.544 10.401zM38.982 13.04L41.544 13.04 41.544 20.772 36.42 20.772 36.42 18.21 38.982 18.21zM44.106 18.229L46.714 18.229 46.714 15.694 44.106 15.694zM15.488 41.636L15.488 44.152 12.914 44.152 12.914 49.429 38.97 49.429 38.97 44.152 36.397 44.152 36.397 41.59 33.812 41.59z" transform="translate(-468 -322) translate(468 322)"/>
                <path fill="#000" d="M17.203 46.684L21.413 46.684 21.413 44.564 17.203 44.564zM23.662 46.684L27.871 46.684 27.871 44.564 23.662 44.564zM30.121 46.684L34.33 46.684 34.33 44.564 30.121 44.564z" transform="translate(-468 -322) translate(468 322)"/>
                <path fill="#F7931E" d="M44.106 5.193L44.106 2.562 7.778 2.562 7.778 5.193 38.982 5.193 38.982 7.847 41.544 7.847 41.544 5.193zM41.544 10.401L46.668 10.401 46.668 7.847 41.544 7.847zM46.668 10.401L46.714 18.118 49.322 18.118 49.322 10.401zM41.544 20.772L46.714 20.772 46.714 18.21 41.544 18.21zM36.42 13.028L33.857 13.028 33.857 18.198 31.027 18.198 31.027 23.391 33.857 23.391 33.857 18.221 36.42 18.221 36.42 13.04 38.982 13.04 38.982 7.847 36.42 7.847zM7.755 12.998L10.317 12.998 10.317 7.805 7.755 7.805zM12.88 13.097L10.317 13.097 10.317 18.221 10.317 20.833 12.88 20.833 15.465 20.833 15.465 18.221 12.88 18.221zM28.196 28.584L26.324 28.584 26.324 33.823 28.525 33.823 28.525 28.584 31.027 28.584 31.027 23.391 28.196 23.391zM23.359 36.45L23.359 33.823 20.736 33.823 20.754 39.119 31.148 39.119 31.148 33.823 28.525 33.823 28.525 36.45z" transform="translate(-468 -322) translate(468 322)"/>
                <path fill="#000" d="M5.216 0L5.216 2.562 5.216 7.778 7.732 7.778 7.732 7.847 10.34 7.847 10.34 13.017 12.902 13.017 12.902 7.847 10.386 7.847 10.386 5.193 7.778 5.193 7.778 2.562 44.106 2.562 44.106 5.193 41.499 5.193 41.499 7.847 38.982 7.847 38.982 13.017 41.544 13.017 41.544 7.847 44.152 7.847 46.668 7.847 46.668 2.562 46.76 2.562 46.76 0z" transform="translate(-468 -322) translate(468 322)"/>
                <path fill="#000" d="M46.668 7.778L46.668 10.432 49.322 10.432 49.322 18.118 51.884 18.118 51.884 10.34 49.322 10.34 49.322 7.778zM31.027 28.527L28.525 28.527 28.525 33.823 31.131 33.823 31.131 39.119 33.753 39.119 33.753 33.823 31.148 33.823 31.148 28.527 33.857 28.527 33.857 23.357 31.027 23.357zM36.42 18.21L38.982 18.21 38.982 13.04 36.42 13.04 36.42 18.187 33.857 18.187 33.857 20.795 33.857 23.357 36.42 23.357 46.714 23.357 46.714 20.795 36.42 20.795z" transform="translate(-468 -322) translate(468 322)"/>
                <path fill="#000" d="M34.27 38.982H15.418v2.608H10.34v10.401h31.204V41.59h-5.079v-2.608H34.27zm2.127 2.654v2.516h2.574v5.277H12.914v-5.277h2.574v-2.516H36.397zM46.668 20.772L49.322 20.772 49.322 18.118 46.668 18.118zM46.714 15.694L46.714 13.04 44.106 13.04 44.061 13.04 41.544 13.04 41.544 18.21 44.106 18.21 44.106 15.694zM2.562 7.778L2.562 10.34 0 10.34 0 18.118 2.562 18.118 2.562 10.432 5.216 10.432 5.216 7.778z" transform="translate(-468 -322) translate(468 322)"/>
                <path fill="#000" d="M20.736 28.527L20.736 33.823 18.131 33.823 18.131 39.119 20.754 39.119 20.754 33.823 23.359 33.823 23.359 28.527 20.858 28.527 20.858 23.357 18.027 23.357 18.027 28.527zM5.17 23.357L15.465 23.357 18.027 23.357 18.027 20.795 18.027 18.187 15.465 18.187 15.465 13.04 12.902 13.04 12.902 18.21 15.465 18.21 15.465 20.795 5.17 20.795z" transform="translate(-468 -322) translate(468 322)"/>
                <path fill="#000" d="M2.562 20.772L5.216 20.772 5.216 18.118 2.562 18.118zM10.34 18.21L10.34 13.04 7.824 13.04 7.778 13.04 5.17 13.04 5.17 15.694 7.778 15.694 7.778 18.21z" transform="translate(-468 -322) translate(468 322)"/>
            </g>
        </g>
    </g>
</svg>
