<svg xmlns="http://www.w3.org/2000/svg" width="87" height="70" viewBox="0 0 87 70">
    <g fill="none" fill-rule="evenodd">
        <g>
            <g>
                <path fill="#FDD76F" d="M78.412 24.304L73.753 24.304 73.753 28.035 60.052 14.394 64.639 9.826 59.569 4.778 45.107 20.42 44.787 24.215 39.02 18.472 43.694 13.818 39.213 9.356 5.38 43.044 8.18 45.067 8.18 49.001 12.116 49.001 12.116 45.082 16.36 45.009 16.36 49.087 20.543 49.078 20.354 53.156 24.596 53.156 24.596 57.107 20.354 57.107 20.354 61.481 24.596 61.481 24.596 65.371 28.837 65.371 42.46 51.822 42.268 54.108 49.447 61.257 78.283 32.546 74.664 28.943 78.412 28.943z" transform="translate(-1172 -338) translate(1172 338)"/>
                <path fill="#4D0000" d="M24.598 36.863v3.92h4.245v4.225h4.051v3.996h4.245v4.226h3.8v-4.226h4.155v-3.996h3.936v-4.226h4.244v-3.919h4.245v4.227h-4.245v3.918h4.245v4.226h-4.245v-4.226h-3.936v4.227h-4.154v3.995h-4.051v4.15h4.051v3.918h4.154v4.226h-4.244v-3.919h-4.155v-4.149h-3.8v4.15h-4.245v4.226h-4.051v3.765h-4.245V65.37h4.052v-3.766h4.244V57.38h3.994v-4.15h-3.994v-3.994H28.65v-4.227h-4.052V41.09h-4.244v-4.227h4.244zm-16.418 0v4.227H4.245v3.918H8.18v3.996h3.936v-3.996h4.244v3.996h4.177v4.149h4.061v4.226h-3.993v3.765h3.993v4.227h-4.244v-3.766H16.36V57.38h3.994V53.23h-4.061v-3.996h-3.869v3.996H8.18v-3.996H3.936v-4.226H0v-4.226h3.936v-3.919H8.18zm57.577 8.146v4.225h-3.994v4.227H57.52v3.918h-3.936v3.92h-4.245v-4.227h3.936v-3.919h4.245v-3.919h3.993V45.01h4.245zm8.238-8.146v4.227H70v3.918h-4.244v-4.226h3.993v-3.919h4.245zm-12.232-12.37v3.976h3.994v4.226h-3.994v4.158H57.52v-4.226h3.993V28.72H57.52v-4.227h4.244zM16.36 28.717v3.91h4.245v4.225H16.36v-3.908h-3.935v3.908H8.18v-4.226h3.936v-3.909h4.244zm65.873 0v4.226h-3.994v3.91h-4.244v-4.227h3.993V28.72h4.245zm4.244-4.225v4.226h-4.244v-4.226h4.244zM61.763 0v3.977h3.994v4.226h-4.245V4.226H57.52v3.977h-4.073v4.225h-4.108v3.92h-4.154v4.226h4.154v3.918h3.936v-4.226h4.245v4.226h-3.936v4.227h-4.245v-3.92h-4.244v-4.225H40.94v-4.227h4.155v-3.919h-3.958V8.203h-4.244V3.976h4.244v4.227h4.244v3.918h3.822V8.203h4.072V3.977h4.245V0h4.244zM24.598 20.573V24.8h-3.993v3.918H16.36v-4.225h3.994v-3.92h4.244zm45.403-4.226v3.92h3.994v-3.92h4.244v3.92h3.994v4.225h-4.245v-3.918h-3.993v3.918H69.75v-3.918h-3.994v-4.227H70zM36.888 8.203v4.226h-3.994v3.918h-4.051v4.227h-4.245v-4.227h4.052v-4.226h3.994V8.203h4.244zm33.113 0v4.226h-4.244v3.918h-4.245v-4.226h4.245V8.202H70z" transform="translate(-1172 -338) translate(1172 338)"/>
                <path fill="#FFF1C9" d="M74.108 28.519H78v-3.791h-3.893v3.79zM57.512 12.12h4V8.285h-4v3.836zM41.136 20.42h3.971v-3.907h-3.97v3.907zM53.57 32.545h3.836v-3.744H53.57v3.744zm24.657-8.052V20.42h-4.232v3.99h-4.12v-3.99h-4.131v-4.155h-4.106v-4.06h4.106V7.897h-4.232v-3.92h-4.231V8.12h-4v4.308h-3.943v3.837h-4.134v-4.06h-4.068V8.12h-4.231v4.308h4.067v3.837h-4.067v4.308h4.067v4.155h4.232v4.031h4.134v4.068h3.943v4.026h4.231v-4.026h4.126v-4.308h-4.126v-4.026h-4.231v4.026h-3.845V24.45h-4.232v-3.878h4.135v-3.836h4.231v-4.309h3.836v4.002h4.106v4.143h4.132v4.155h4.232v3.99h3.893v3.827h-3.893v4.124h-4.232v4.22h-4.132v3.998h-4.106v4.03H53.28v4.308h4.231v-4.03h4.126v-3.998h4.106v-4.22h4.132v-4.124h4.232v-4.026H78V28.8h4.232v-4.308h-4.006z" transform="translate(-1172 -338) translate(1172 338)"/>
                <path fill="#FFF1C9" d="M20.542 49.078h3.928v-3.996h-3.928v3.996zm28.5 8.066h-3.838v-4.032h-4.068v-3.91h4.056v-4.308H40.96v4.069h-4.055v4.19h-3.952v-4.075h-4.241v-4.07h-4.116v-4.005h-4.242v4.005H16.36v4.08h3.994v4.069h4.242v-4.07h4.116v4.07h4.057v4.075h-4.057v3.765h-4.116v-3.89h-4.242v4.373h4.242v3.89h4.241v-3.765h4.116v-4.373h4.058v-3.96h3.961v4.148h4.232v4.032h4.232v-4.105h3.838v-4.309h-4.232v4.106z" transform="translate(-1172 -338) translate(1172 338)"/>
                <path fill="#FFF1C9" d="M49.242 40.977L53.28 40.977 53.28 36.864 49.242 36.864 45.204 36.864 45.204 40.977 45.204 45.009 49.242 45.009zM8.18 49.001L12.116 49.001 12.116 45.082 8.18 45.082z" transform="translate(-1172 -338) translate(1172 338)"/>
                <path fill="#F4E1BA" d="M20.572 40.932L20.572 36.853 16.509 36.853 16.509 32.846 20.592 32.846 20.592 28.954 24.711 28.954 24.711 24.882 28.83 24.882 28.83 20.574 32.859 20.574 32.859 16.514 36.888 16.514 36.888 12.205 32.656 12.205 32.656 16.265 28.627 16.265 28.627 20.574 24.598 20.574 24.598 24.646 20.479 24.646 20.479 28.719 16.36 28.719 16.36 32.786 12.277 32.786 12.277 36.853 8.18 36.853 8.18 40.988 4.084 40.988 4.084 45.067 8.18 45.067 8.18 41.09 12.277 41.09 12.277 36.914 16.331 36.914 16.331 40.932z" transform="translate(-1172 -338) translate(1172 338)"/>
                <path fill="#F77E00" d="M32.85 28.598L28.712 28.598 28.712 36.853 36.959 36.853 36.959 32.705 32.85 32.705 32.85 28.718 36.959 28.718 36.959 32.705 41.069 32.705 41.069 24.493 32.85 24.493zM40.939 40.782L36.814 40.782 36.814 45.008 41.059 45.008 41.059 40.97 45.184 40.97 45.184 36.863 49.338 36.863 49.338 32.637 45.094 32.637 45.094 36.743 40.939 36.743z" transform="translate(-1172 -338) translate(1172 338)"/>
            </g>
        </g>
    </g>
</svg>
